<svg width="345" height="120" viewBox="0 0 345 120" fill="none" xmlns="http://www.w3.org/2000/svg">
<rect x="145.5" y="0.5" width="99" height="19" fill="#F8F9FA" stroke="#C0C0C0"/>
<path d="M191 14.4V6H194.936C195.944 6 196.712 6.2 197.24 6.6C197.768 6.992 198.032 7.52 198.032 8.184C198.032 8.632 197.928 9.016 197.72 9.336C197.512 9.648 197.232 9.892 196.88 10.068C196.536 10.236 196.16 10.32 195.752 10.32L195.968 9.888C196.44 9.888 196.864 9.976 197.24 10.152C197.616 10.32 197.912 10.568 198.128 10.896C198.352 11.224 198.464 11.632 198.464 12.12C198.464 12.84 198.188 13.4 197.636 13.8C197.084 14.2 196.264 14.4 195.176 14.4H191ZM192.56 13.176H195.08C195.664 13.176 196.112 13.08 196.424 12.888C196.736 12.696 196.892 12.388 196.892 11.964C196.892 11.548 196.736 11.244 196.424 11.052C196.112 10.852 195.664 10.752 195.08 10.752H192.44V9.54H194.768C195.312 9.54 195.728 9.444 196.016 9.252C196.312 9.06 196.46 8.772 196.46 8.388C196.46 7.996 196.312 7.704 196.016 7.512C195.728 7.32 195.312 7.224 194.768 7.224H192.56V13.176Z" fill="#CECECF"/>
<rect x="245.5" y="0.5" width="99" height="19" fill="#F8F9FA" stroke="#C0C0C0"/>
<path d="M295.488 14.64C294.848 14.64 294.252 14.536 293.7 14.328C293.156 14.112 292.68 13.812 292.272 13.428C291.872 13.036 291.56 12.576 291.336 12.048C291.112 11.52 291 10.944 291 10.32C291 9.696 291.112 9.12 291.336 8.592C291.56 8.064 291.876 7.608 292.284 7.224C292.692 6.832 293.168 6.532 293.712 6.324C294.256 6.108 294.852 6 295.5 6C296.188 6 296.816 6.12 297.384 6.36C297.952 6.592 298.432 6.94 298.824 7.404L297.816 8.352C297.512 8.024 297.172 7.78 296.796 7.62C296.42 7.452 296.012 7.368 295.572 7.368C295.132 7.368 294.728 7.44 294.36 7.584C294 7.728 293.684 7.932 293.412 8.196C293.148 8.46 292.94 8.772 292.788 9.132C292.644 9.492 292.572 9.888 292.572 10.32C292.572 10.752 292.644 11.148 292.788 11.508C292.94 11.868 293.148 12.18 293.412 12.444C293.684 12.708 294 12.912 294.36 13.056C294.728 13.2 295.132 13.272 295.572 13.272C296.012 13.272 296.42 13.192 296.796 13.032C297.172 12.864 297.512 12.612 297.816 12.276L298.824 13.236C298.432 13.692 297.952 14.04 297.384 14.28C296.816 14.52 296.184 14.64 295.488 14.64Z" fill="#CECECF"/>
<rect x="45.5" y="0.5" width="99" height="19" fill="#F8F9FA" stroke="#C0C0C0"/>
<path d="M90 14.4L93.78 6H95.316L99.108 14.4H97.476L94.224 6.828H94.848L91.608 14.4H90ZM91.74 12.456L92.16 11.232H96.696L97.116 12.456H91.74Z" fill="#CECECF"/>
<rect x="45.5" y="20.5" width="99" height="19" fill="white" stroke="#C0C0C0"/>
<rect x="45.5" y="40.5" width="99" height="19" fill="white" stroke="#C0C0C0"/>
<rect x="45.5" y="60.5" width="99" height="19" fill="white" stroke="#C0C0C0"/>
<rect x="45.5" y="80.5" width="99" height="19" fill="white" stroke="#C0C0C0"/>
<rect x="45.5" y="100.5" width="99" height="19" fill="white" stroke="#C0C0C0"/>
<rect x="145.5" y="20.5" width="99" height="19" fill="white" stroke="#C0C0C0"/>
<rect x="145.5" y="40.5" width="99" height="19" fill="white" stroke="#C0C0C0"/>
<rect x="145.5" y="60.5" width="99" height="19" fill="white" stroke="#C0C0C0"/>
<rect x="145.5" y="80.5" width="99" height="19" fill="white" stroke="#C0C0C0"/>
<rect x="145.5" y="100.5" width="99" height="19" fill="white" stroke="#C0C0C0"/>
<rect x="245.5" y="20.5" width="99" height="19" fill="white" stroke="#C0C0C0"/>
<rect x="245.5" y="40.5" width="99" height="19" fill="white" stroke="#C0C0C0"/>
<rect x="245.5" y="60.5" width="99" height="19" fill="white" stroke="#C0C0C0"/>
<rect x="245.5" y="80.5" width="99" height="19" fill="white" stroke="#C0C0C0"/>
<rect x="245.5" y="100.5" width="99" height="19" fill="white" stroke="#C0C0C0"/>
<rect x="0.5" y="0.5" width="44" height="19" fill="#F8F9FA" stroke="#C0C0C0"/>
<rect x="0.5" y="20.5" width="44" height="19" fill="#F8F9FA" stroke="#C0C0C0"/>
<path d="M22.776 34.4V26.6L23.46 27.308H21V26H24.336V34.4H22.776Z" fill="#CECECF"/>
<rect x="0.5" y="40.5" width="44" height="19" fill="#F8F9FA" stroke="#C0C0C0"/>
<path d="M19.324 54.52V53.476L22.66 50.308C22.94 50.044 23.148 49.812 23.284 49.612C23.42 49.412 23.508 49.228 23.548 49.06C23.596 48.884 23.62 48.72 23.62 48.568C23.62 48.184 23.488 47.888 23.224 47.68C22.96 47.464 22.572 47.356 22.06 47.356C21.652 47.356 21.28 47.428 20.944 47.572C20.616 47.716 20.332 47.936 20.092 48.232L19 47.392C19.328 46.952 19.768 46.612 20.32 46.372C20.88 46.124 21.504 46 22.192 46C22.8 46 23.328 46.1 23.776 46.3C24.232 46.492 24.58 46.768 24.82 47.128C25.068 47.488 25.192 47.916 25.192 48.412C25.192 48.684 25.156 48.956 25.084 49.228C25.012 49.492 24.876 49.772 24.676 50.068C24.476 50.364 24.184 50.696 23.8 51.064L20.932 53.788L20.608 53.2H25.516V54.52H19.324Z" fill="#CECECF"/>
<rect x="0.5" y="60.5" width="44" height="19" fill="#F8F9FA" stroke="#C0C0C0"/>
<path d="M22.156 74.52C21.564 74.52 20.984 74.436 20.416 74.268C19.856 74.092 19.384 73.852 19 73.548L19.672 72.336C19.976 72.584 20.344 72.784 20.776 72.936C21.208 73.088 21.66 73.164 22.132 73.164C22.692 73.164 23.128 73.052 23.44 72.828C23.752 72.596 23.908 72.284 23.908 71.892C23.908 71.508 23.764 71.204 23.476 70.98C23.188 70.756 22.724 70.644 22.084 70.644H21.316V69.576L23.716 66.72L23.92 67.308H19.408V66H25.132V67.044L22.732 69.9L21.916 69.42H22.384C23.416 69.42 24.188 69.652 24.7 70.116C25.22 70.572 25.48 71.16 25.48 71.88C25.48 72.352 25.36 72.788 25.12 73.188C24.88 73.588 24.512 73.912 24.016 74.16C23.528 74.4 22.908 74.52 22.156 74.52Z" fill="#CECECF"/>
<rect x="0.5" y="80.5" width="44" height="19" fill="#F8F9FA" stroke="#C0C0C0"/>
<path d="M19 92.492V91.412L23.14 86H24.808L20.728 91.412L19.948 91.172H26.608V92.492H19ZM23.608 94.4V92.492L23.656 91.172V89.48H25.12V94.4H23.608Z" fill="#CECECF"/>
<rect x="0.5" y="100.5" width="44" height="19" fill="#F8F9FA" stroke="#C0C0C0"/>
<path d="M23.156 114.52C22.564 114.52 21.984 114.436 21.416 114.268C20.856 114.092 20.384 113.852 20 113.548L20.66 112.336C20.964 112.584 21.332 112.784 21.764 112.936C22.204 113.088 22.66 113.164 23.132 113.164C23.684 113.164 24.116 113.048 24.428 112.816C24.748 112.584 24.908 112.272 24.908 111.88C24.908 111.616 24.84 111.384 24.704 111.184C24.576 110.984 24.344 110.832 24.008 110.728C23.68 110.624 23.228 110.572 22.652 110.572H20.624L21.056 106H25.988V107.308H21.632L22.448 106.564L22.124 109.984L21.308 109.252H23C23.832 109.252 24.5 109.364 25.004 109.588C25.516 109.804 25.888 110.108 26.12 110.5C26.36 110.884 26.48 111.324 26.48 111.82C26.48 112.308 26.36 112.756 26.12 113.164C25.88 113.572 25.512 113.9 25.016 114.148C24.528 114.396 23.908 114.52 23.156 114.52Z" fill="#CECECF"/>
<path d="M130 32.492V31.412L134.14 26H135.808L131.728 31.412L130.948 31.172H137.608V32.492H130ZM134.608 34.4V32.492L134.656 31.172V29.48H136.12V34.4H134.608Z" fill="#666666"/>
<path d="M134.377 54.52C133.617 54.52 132.965 54.36 132.421 54.04C131.877 53.712 131.461 53.24 131.173 52.624C130.885 52.008 130.741 51.248 130.741 50.344C130.741 49.384 130.913 48.572 131.257 47.908C131.609 47.244 132.093 46.74 132.709 46.396C133.333 46.052 134.049 45.88 134.857 45.88C135.281 45.88 135.685 45.924 136.069 46.012C136.461 46.1 136.793 46.236 137.065 46.42L136.489 47.596C136.257 47.444 136.005 47.34 135.733 47.284C135.469 47.22 135.189 47.188 134.893 47.188C134.101 47.188 133.473 47.432 133.009 47.92C132.545 48.408 132.313 49.128 132.313 50.08C132.313 50.232 132.317 50.412 132.325 50.62C132.333 50.82 132.361 51.024 132.409 51.232L131.929 50.704C132.073 50.376 132.269 50.104 132.517 49.888C132.773 49.664 133.073 49.496 133.417 49.384C133.769 49.272 134.149 49.216 134.557 49.216C135.109 49.216 135.601 49.324 136.033 49.54C136.465 49.748 136.809 50.048 137.065 50.44C137.321 50.824 137.449 51.276 137.449 51.796C137.449 52.348 137.313 52.828 137.041 53.236C136.769 53.644 136.401 53.96 135.937 54.184C135.473 54.408 134.953 54.52 134.377 54.52ZM134.293 53.296C134.613 53.296 134.897 53.24 135.145 53.128C135.393 53.008 135.585 52.84 135.721 52.624C135.865 52.408 135.937 52.156 135.937 51.868C135.937 51.428 135.785 51.08 135.481 50.824C135.177 50.568 134.769 50.44 134.257 50.44C133.921 50.44 133.625 50.504 133.369 50.632C133.121 50.752 132.921 50.92 132.769 51.136C132.625 51.352 132.553 51.6 132.553 51.88C132.553 52.136 132.621 52.372 132.757 52.588C132.893 52.804 133.089 52.976 133.345 53.104C133.609 53.232 133.925 53.296 134.293 53.296Z" fill="#666666"/>
<path d="M131.172 74.4V73.356L134.508 70.188C134.788 69.924 134.996 69.692 135.132 69.492C135.268 69.292 135.356 69.108 135.396 68.94C135.444 68.764 135.468 68.6 135.468 68.448C135.468 68.064 135.336 67.768 135.072 67.56C134.808 67.344 134.42 67.236 133.908 67.236C133.5 67.236 133.128 67.308 132.792 67.452C132.464 67.596 132.18 67.816 131.94 68.112L130.848 67.272C131.176 66.832 131.616 66.492 132.168 66.252C132.728 66.004 133.352 65.88 134.04 65.88C134.648 65.88 135.176 65.98 135.624 66.18C136.08 66.372 136.428 66.648 136.668 67.008C136.916 67.368 137.04 67.796 137.04 68.292C137.04 68.564 137.004 68.836 136.932 69.108C136.86 69.372 136.724 69.652 136.524 69.948C136.324 70.244 136.032 70.576 135.648 70.944L132.78 73.668L132.456 73.08H137.364V74.4H131.172Z" fill="#666666"/>
<path d="M134.377 94.52C133.617 94.52 132.965 94.36 132.421 94.04C131.877 93.712 131.461 93.24 131.173 92.624C130.885 92.008 130.741 91.248 130.741 90.344C130.741 89.384 130.913 88.572 131.257 87.908C131.609 87.244 132.093 86.74 132.709 86.396C133.333 86.052 134.049 85.88 134.857 85.88C135.281 85.88 135.685 85.924 136.069 86.012C136.461 86.1 136.793 86.236 137.065 86.42L136.489 87.596C136.257 87.444 136.005 87.34 135.733 87.284C135.469 87.22 135.189 87.188 134.893 87.188C134.101 87.188 133.473 87.432 133.009 87.92C132.545 88.408 132.313 89.128 132.313 90.08C132.313 90.232 132.317 90.412 132.325 90.62C132.333 90.82 132.361 91.024 132.409 91.232L131.929 90.704C132.073 90.376 132.269 90.104 132.517 89.888C132.773 89.664 133.073 89.496 133.417 89.384C133.769 89.272 134.149 89.216 134.557 89.216C135.109 89.216 135.601 89.324 136.033 89.54C136.465 89.748 136.809 90.048 137.065 90.44C137.321 90.824 137.449 91.276 137.449 91.796C137.449 92.348 137.313 92.828 137.041 93.236C136.769 93.644 136.401 93.96 135.937 94.184C135.473 94.408 134.953 94.52 134.377 94.52ZM134.293 93.296C134.613 93.296 134.897 93.24 135.145 93.128C135.393 93.008 135.585 92.84 135.721 92.624C135.865 92.408 135.937 92.156 135.937 91.868C135.937 91.428 135.785 91.08 135.481 90.824C135.177 90.568 134.769 90.44 134.257 90.44C133.921 90.44 133.625 90.504 133.369 90.632C133.121 90.752 132.921 90.92 132.769 91.136C132.625 91.352 132.553 91.6 132.553 91.88C132.553 92.136 132.621 92.372 132.757 92.588C132.893 92.804 133.089 92.976 133.345 93.104C133.609 93.232 133.925 93.296 134.293 93.296Z" fill="#666666"/>
<path d="M211.197 34.52V33.476L214.533 30.308C214.813 30.044 215.021 29.812 215.157 29.612C215.293 29.412 215.381 29.228 215.421 29.06C215.469 28.884 215.493 28.72 215.493 28.568C215.493 28.184 215.361 27.888 215.097 27.68C214.833 27.464 214.445 27.356 213.933 27.356C213.525 27.356 213.153 27.428 212.817 27.572C212.489 27.716 212.205 27.936 211.965 28.232L210.873 27.392C211.201 26.952 211.641 26.612 212.193 26.372C212.753 26.124 213.377 26 214.065 26C214.673 26 215.201 26.1 215.649 26.3C216.105 26.492 216.453 26.768 216.693 27.128C216.941 27.488 217.065 27.916 217.065 28.412C217.065 28.684 217.029 28.956 216.957 29.228C216.885 29.492 216.749 29.772 216.549 30.068C216.349 30.364 216.057 30.696 215.673 31.064L212.805 33.788L212.481 33.2H217.389V34.52H211.197Z" fill="#666666"/>
<path d="M218.181 34.52V33.476L221.517 30.308C221.797 30.044 222.005 29.812 222.141 29.612C222.277 29.412 222.365 29.228 222.405 29.06C222.453 28.884 222.477 28.72 222.477 28.568C222.477 28.184 222.345 27.888 222.081 27.68C221.817 27.464 221.429 27.356 220.917 27.356C220.509 27.356 220.137 27.428 219.801 27.572C219.473 27.716 219.189 27.936 218.949 28.232L217.857 27.392C218.185 26.952 218.625 26.612 219.177 26.372C219.737 26.124 220.361 26 221.049 26C221.657 26 222.185 26.1 222.633 26.3C223.089 26.492 223.437 26.768 223.677 27.128C223.925 27.488 224.049 27.916 224.049 28.412C224.049 28.684 224.013 28.956 223.941 29.228C223.869 29.492 223.733 29.772 223.533 30.068C223.333 30.364 223.041 30.696 222.657 31.064L219.789 33.788L219.465 33.2H224.373V34.52H218.181Z" fill="#666666"/>
<path d="M224.978 32.612V31.532L229.118 26.12H230.786L226.706 31.532L225.926 31.292H232.586V32.612H224.978ZM229.586 34.52V32.612L229.634 31.292V29.6H231.098V34.52H229.586Z" fill="#666666"/>
<path d="M234.282 34.52V26.72L234.966 27.428H232.506V26.12H235.842V34.52H234.282Z" fill="#666666"/>
<path d="M213.095 52.612V51.532L217.235 46.12H218.903L214.823 51.532L214.043 51.292H220.703V52.612H213.095ZM217.703 54.52V52.612L217.751 51.292V49.6H219.215V54.52H217.703Z" fill="#666666"/>
<path d="M224.864 54.64C224.2 54.64 223.6 54.472 223.064 54.136C222.536 53.8 222.12 53.312 221.816 52.672C221.512 52.024 221.36 51.24 221.36 50.32C221.36 49.4 221.512 48.62 221.816 47.98C222.12 47.332 222.536 46.84 223.064 46.504C223.6 46.168 224.2 46 224.864 46C225.536 46 226.136 46.168 226.664 46.504C227.192 46.84 227.608 47.332 227.912 47.98C228.224 48.62 228.38 49.4 228.38 50.32C228.38 51.24 228.224 52.024 227.912 52.672C227.608 53.312 227.192 53.8 226.664 54.136C226.136 54.472 225.536 54.64 224.864 54.64ZM224.864 53.284C225.256 53.284 225.596 53.18 225.884 52.972C226.172 52.756 226.396 52.428 226.556 51.988C226.724 51.548 226.808 50.992 226.808 50.32C226.808 49.64 226.724 49.084 226.556 48.652C226.396 48.212 226.172 47.888 225.884 47.68C225.596 47.464 225.256 47.356 224.864 47.356C224.488 47.356 224.152 47.464 223.856 47.68C223.568 47.888 223.34 48.212 223.172 48.652C223.012 49.084 222.932 49.64 222.932 50.32C222.932 50.992 223.012 51.548 223.172 51.988C223.34 52.428 223.568 52.756 223.856 52.972C224.152 53.18 224.488 53.284 224.864 53.284Z" fill="#666666"/>
<path d="M232.938 54.64C232.274 54.64 231.674 54.472 231.138 54.136C230.61 53.8 230.194 53.312 229.89 52.672C229.586 52.024 229.434 51.24 229.434 50.32C229.434 49.4 229.586 48.62 229.89 47.98C230.194 47.332 230.61 46.84 231.138 46.504C231.674 46.168 232.274 46 232.938 46C233.61 46 234.21 46.168 234.738 46.504C235.266 46.84 235.682 47.332 235.986 47.98C236.298 48.62 236.454 49.4 236.454 50.32C236.454 51.24 236.298 52.024 235.986 52.672C235.682 53.312 235.266 53.8 234.738 54.136C234.21 54.472 233.61 54.64 232.938 54.64ZM232.938 53.284C233.33 53.284 233.67 53.18 233.958 52.972C234.246 52.756 234.47 52.428 234.63 51.988C234.798 51.548 234.882 50.992 234.882 50.32C234.882 49.64 234.798 49.084 234.63 48.652C234.47 48.212 234.246 47.888 233.958 47.68C233.67 47.464 233.33 47.356 232.938 47.356C232.562 47.356 232.226 47.464 231.93 47.68C231.642 47.888 231.414 48.212 231.246 48.652C231.086 49.084 231.006 49.64 231.006 50.32C231.006 50.992 231.086 51.548 231.246 51.988C231.414 52.428 231.642 52.756 231.93 52.972C232.226 53.18 232.562 53.284 232.938 53.284Z" fill="#666666"/>
<path d="M211.156 74.64C210.564 74.64 209.984 74.556 209.416 74.388C208.856 74.212 208.384 73.972 208 73.668L208.672 72.456C208.976 72.704 209.344 72.904 209.776 73.056C210.208 73.208 210.66 73.284 211.132 73.284C211.692 73.284 212.128 73.172 212.44 72.948C212.752 72.716 212.908 72.404 212.908 72.012C212.908 71.628 212.764 71.324 212.476 71.1C212.188 70.876 211.724 70.764 211.084 70.764H210.316V69.696L212.716 66.84L212.92 67.428H208.408V66.12H214.132V67.164L211.732 70.02L210.916 69.54H211.384C212.416 69.54 213.188 69.772 213.7 70.236C214.22 70.692 214.48 71.28 214.48 72C214.48 72.472 214.36 72.908 214.12 73.308C213.88 73.708 213.512 74.032 213.016 74.28C212.528 74.52 211.908 74.64 211.156 74.64Z" fill="#666666"/>
<path d="M215.334 74.52V73.476L218.67 70.308C218.95 70.044 219.158 69.812 219.294 69.612C219.43 69.412 219.518 69.228 219.558 69.06C219.606 68.884 219.63 68.72 219.63 68.568C219.63 68.184 219.498 67.888 219.234 67.68C218.97 67.464 218.582 67.356 218.07 67.356C217.662 67.356 217.29 67.428 216.954 67.572C216.626 67.716 216.342 67.936 216.102 68.232L215.01 67.392C215.338 66.952 215.778 66.612 216.33 66.372C216.89 66.124 217.514 66 218.202 66C218.81 66 219.338 66.1 219.786 66.3C220.242 66.492 220.59 66.768 220.83 67.128C221.078 67.488 221.202 67.916 221.202 68.412C221.202 68.684 221.166 68.956 221.094 69.228C221.022 69.492 220.886 69.772 220.686 70.068C220.486 70.364 220.194 70.696 219.81 71.064L216.942 73.788L216.618 73.2H221.526V74.52H215.334Z" fill="#666666"/>
<path d="M225.21 74.64C224.618 74.64 224.038 74.556 223.47 74.388C222.91 74.212 222.438 73.972 222.054 73.668L222.714 72.456C223.018 72.704 223.386 72.904 223.818 73.056C224.258 73.208 224.714 73.284 225.186 73.284C225.738 73.284 226.17 73.168 226.482 72.936C226.802 72.704 226.962 72.392 226.962 72C226.962 71.736 226.894 71.504 226.758 71.304C226.63 71.104 226.398 70.952 226.062 70.848C225.734 70.744 225.282 70.692 224.706 70.692H222.678L223.11 66.12H228.042V67.428H223.686L224.502 66.684L224.178 70.104L223.362 69.372H225.054C225.886 69.372 226.554 69.484 227.058 69.708C227.57 69.924 227.942 70.228 228.174 70.62C228.414 71.004 228.534 71.444 228.534 71.94C228.534 72.428 228.414 72.876 228.174 73.284C227.934 73.692 227.566 74.02 227.07 74.268C226.582 74.516 225.962 74.64 225.21 74.64Z" fill="#666666"/>
<path d="M232.938 74.64C232.274 74.64 231.674 74.472 231.138 74.136C230.61 73.8 230.194 73.312 229.89 72.672C229.586 72.024 229.434 71.24 229.434 70.32C229.434 69.4 229.586 68.62 229.89 67.98C230.194 67.332 230.61 66.84 231.138 66.504C231.674 66.168 232.274 66 232.938 66C233.61 66 234.21 66.168 234.738 66.504C235.266 66.84 235.682 67.332 235.986 67.98C236.298 68.62 236.454 69.4 236.454 70.32C236.454 71.24 236.298 72.024 235.986 72.672C235.682 73.312 235.266 73.8 234.738 74.136C234.21 74.472 233.61 74.64 232.938 74.64ZM232.938 73.284C233.33 73.284 233.67 73.18 233.958 72.972C234.246 72.756 234.47 72.428 234.63 71.988C234.798 71.548 234.882 70.992 234.882 70.32C234.882 69.64 234.798 69.084 234.63 68.652C234.47 68.212 234.246 67.888 233.958 67.68C233.67 67.464 233.33 67.356 232.938 67.356C232.562 67.356 232.226 67.464 231.93 67.68C231.642 67.888 231.414 68.212 231.246 68.652C231.086 69.084 231.006 69.64 231.006 70.32C231.006 70.992 231.086 71.548 231.246 71.988C231.414 72.428 231.642 72.756 231.93 72.972C232.226 73.18 232.562 73.284 232.938 73.284Z" fill="#666666"/>
<path d="M211.033 94.52V93.476L214.369 90.308C214.649 90.044 214.857 89.812 214.993 89.612C215.129 89.412 215.217 89.228 215.257 89.06C215.305 88.884 215.329 88.72 215.329 88.568C215.329 88.184 215.197 87.888 214.933 87.68C214.669 87.464 214.281 87.356 213.769 87.356C213.361 87.356 212.989 87.428 212.653 87.572C212.325 87.716 212.041 87.936 211.801 88.232L210.709 87.392C211.037 86.952 211.477 86.612 212.029 86.372C212.589 86.124 213.213 86 213.901 86C214.509 86 215.037 86.1 215.485 86.3C215.941 86.492 216.289 86.768 216.529 87.128C216.777 87.488 216.901 87.916 216.901 88.412C216.901 88.684 216.865 88.956 216.793 89.228C216.721 89.492 216.585 89.772 216.385 90.068C216.185 90.364 215.893 90.696 215.509 91.064L212.641 93.788L212.317 93.2H217.225V94.52H211.033Z" fill="#666666"/>
<path d="M221.497 94.64C220.801 94.64 220.197 94.536 219.685 94.328C219.173 94.12 218.777 93.828 218.497 93.452C218.217 93.068 218.077 92.62 218.077 92.108C218.077 91.596 218.213 91.164 218.485 90.812C218.757 90.46 219.149 90.192 219.661 90.008C220.173 89.824 220.785 89.732 221.497 89.732C222.209 89.732 222.821 89.824 223.333 90.008C223.853 90.192 224.249 90.464 224.521 90.824C224.801 91.176 224.941 91.604 224.941 92.108C224.941 92.62 224.797 93.068 224.509 93.452C224.229 93.828 223.829 94.12 223.309 94.328C222.797 94.536 222.193 94.64 221.497 94.64ZM221.497 93.416C222.073 93.416 222.529 93.296 222.865 93.056C223.201 92.816 223.369 92.484 223.369 92.06C223.369 91.644 223.201 91.316 222.865 91.076C222.529 90.836 222.073 90.716 221.497 90.716C220.921 90.716 220.469 90.836 220.141 91.076C219.813 91.316 219.649 91.644 219.649 92.06C219.649 92.484 219.813 92.816 220.141 93.056C220.469 93.296 220.921 93.416 221.497 93.416ZM221.497 90.548C220.849 90.548 220.293 90.464 219.829 90.296C219.365 90.12 219.005 89.868 218.749 89.54C218.501 89.204 218.377 88.804 218.377 88.34C218.377 87.86 218.505 87.448 218.761 87.104C219.025 86.752 219.393 86.48 219.865 86.288C220.337 86.096 220.881 86 221.497 86C222.121 86 222.669 86.096 223.141 86.288C223.613 86.48 223.981 86.752 224.245 87.104C224.509 87.448 224.641 87.86 224.641 88.34C224.641 88.804 224.513 89.204 224.257 89.54C224.009 89.868 223.649 90.12 223.177 90.296C222.705 90.464 222.145 90.548 221.497 90.548ZM221.497 89.588C221.993 89.588 222.385 89.484 222.673 89.276C222.961 89.06 223.105 88.772 223.105 88.412C223.105 88.036 222.957 87.744 222.661 87.536C222.365 87.328 221.977 87.224 221.497 87.224C221.017 87.224 220.633 87.328 220.345 87.536C220.057 87.744 219.913 88.036 219.913 88.412C219.913 88.772 220.053 89.06 220.333 89.276C220.621 89.484 221.009 89.588 221.497 89.588Z" fill="#666666"/>
<path d="M225.846 94.52V93.476L229.182 90.308C229.462 90.044 229.67 89.812 229.806 89.612C229.942 89.412 230.03 89.228 230.07 89.06C230.118 88.884 230.142 88.72 230.142 88.568C230.142 88.184 230.01 87.888 229.746 87.68C229.482 87.464 229.094 87.356 228.582 87.356C228.174 87.356 227.802 87.428 227.466 87.572C227.138 87.716 226.854 87.936 226.614 88.232L225.522 87.392C225.85 86.952 226.29 86.612 226.842 86.372C227.402 86.124 228.026 86 228.714 86C229.322 86 229.85 86.1 230.298 86.3C230.753 86.492 231.102 86.768 231.342 87.128C231.59 87.488 231.714 87.916 231.714 88.412C231.714 88.684 231.678 88.956 231.606 89.228C231.534 89.492 231.398 89.772 231.198 90.068C230.998 90.364 230.706 90.696 230.322 91.064L227.454 93.788L227.13 93.2H232.038V94.52H225.846Z" fill="#666666"/>
<path d="M234.282 94.52V86.72L234.966 87.428H232.506V86.12H235.842V94.52H234.282Z" fill="#666666"/>
<path d="M302.966 32.604C302.446 32.604 301.97 32.484 301.538 32.244C301.114 32.004 300.774 31.644 300.518 31.164C300.27 30.676 300.146 30.06 300.146 29.316C300.146 28.564 300.266 27.948 300.506 27.468C300.754 26.988 301.09 26.632 301.514 26.4C301.938 26.16 302.422 26.04 302.966 26.04C303.598 26.04 304.154 26.176 304.634 26.448C305.122 26.72 305.506 27.1 305.786 27.588C306.074 28.076 306.218 28.652 306.218 29.316C306.218 29.98 306.074 30.56 305.786 31.056C305.506 31.544 305.122 31.924 304.634 32.196C304.154 32.468 303.598 32.604 302.966 32.604ZM299.414 34.848V26.112H300.842V27.624L300.794 29.328L300.914 31.032V34.848H299.414ZM302.798 31.32C303.158 31.32 303.478 31.24 303.758 31.08C304.046 30.92 304.274 30.688 304.442 30.384C304.61 30.08 304.694 29.724 304.694 29.316C304.694 28.9 304.61 28.544 304.442 28.248C304.274 27.944 304.046 27.712 303.758 27.552C303.478 27.392 303.158 27.312 302.798 27.312C302.438 27.312 302.114 27.392 301.826 27.552C301.538 27.712 301.31 27.944 301.142 28.248C300.974 28.544 300.89 28.9 300.89 29.316C300.89 29.724 300.974 30.08 301.142 30.384C301.31 30.688 301.538 30.92 301.826 31.08C302.114 31.24 302.438 31.32 302.798 31.32Z" fill="#666666"/>
<path d="M310.653 32.604C309.941 32.604 309.317 32.464 308.781 32.184C308.253 31.896 307.841 31.504 307.545 31.008C307.257 30.512 307.113 29.948 307.113 29.316C307.113 28.676 307.253 28.112 307.533 27.624C307.821 27.128 308.213 26.74 308.709 26.46C309.213 26.18 309.785 26.04 310.425 26.04C311.049 26.04 311.605 26.176 312.093 26.448C312.581 26.72 312.965 27.104 313.245 27.6C313.525 28.096 313.665 28.68 313.665 29.352C313.665 29.416 313.661 29.488 313.653 29.568C313.653 29.648 313.649 29.724 313.641 29.796H308.301V28.8H312.849L312.261 29.112C312.269 28.744 312.193 28.42 312.033 28.14C311.873 27.86 311.653 27.64 311.373 27.48C311.101 27.32 310.785 27.24 310.425 27.24C310.057 27.24 309.733 27.32 309.453 27.48C309.181 27.64 308.965 27.864 308.805 28.152C308.653 28.432 308.577 28.764 308.577 29.148V29.388C308.577 29.772 308.665 30.112 308.841 30.408C309.017 30.704 309.265 30.932 309.585 31.092C309.905 31.252 310.273 31.332 310.689 31.332C311.049 31.332 311.373 31.276 311.661 31.164C311.949 31.052 312.205 30.876 312.429 30.636L313.233 31.56C312.945 31.896 312.581 32.156 312.141 32.34C311.709 32.516 311.213 32.604 310.653 32.604Z" fill="#666666"/>
<path d="M314.054 32.52L316.874 28.848L316.85 29.652L314.162 26.112H315.83L317.714 28.632H317.078L318.974 26.112H320.594L317.882 29.652L317.894 28.848L320.702 32.52H319.01L317.03 29.844L317.654 29.928L315.71 32.52H314.054Z" fill="#666666"/>
<path d="M322.826 32.52V24.72L323.51 25.428H321.05V24.12H324.385V32.52H322.826Z" fill="#666666"/>
<path d="M329.556 32.64C328.892 32.64 328.292 32.472 327.756 32.136C327.228 31.8 326.812 31.312 326.508 30.672C326.204 30.024 326.052 29.24 326.052 28.32C326.052 27.4 326.204 26.62 326.508 25.98C326.812 25.332 327.228 24.84 327.756 24.504C328.292 24.168 328.892 24 329.556 24C330.228 24 330.828 24.168 331.356 24.504C331.884 24.84 332.3 25.332 332.604 25.98C332.916 26.62 333.072 27.4 333.072 28.32C333.072 29.24 332.916 30.024 332.604 30.672C332.3 31.312 331.884 31.8 331.356 32.136C330.828 32.472 330.228 32.64 329.556 32.64ZM329.556 31.284C329.948 31.284 330.288 31.18 330.576 30.972C330.864 30.756 331.088 30.428 331.248 29.988C331.416 29.548 331.5 28.992 331.5 28.32C331.5 27.64 331.416 27.084 331.248 26.652C331.088 26.212 330.864 25.888 330.576 25.68C330.288 25.464 329.948 25.356 329.556 25.356C329.18 25.356 328.844 25.464 328.548 25.68C328.26 25.888 328.032 26.212 327.864 26.652C327.704 27.084 327.624 27.64 327.624 28.32C327.624 28.992 327.704 29.548 327.864 29.988C328.032 30.428 328.26 30.756 328.548 30.972C328.844 31.18 329.18 31.284 329.556 31.284Z" fill="#666666"/>
<path d="M335.458 32.52V24.72L336.142 25.428H333.682V24.12H337.018V32.52H335.458Z" fill="#666666"/>
<path d="M300.552 52.604C300.032 52.604 299.556 52.484 299.124 52.244C298.7 52.004 298.36 51.644 298.104 51.164C297.856 50.676 297.732 50.06 297.732 49.316C297.732 48.564 297.852 47.948 298.092 47.468C298.34 46.988 298.676 46.632 299.1 46.4C299.524 46.16 300.008 46.04 300.552 46.04C301.184 46.04 301.74 46.176 302.22 46.448C302.708 46.72 303.092 47.1 303.372 47.588C303.66 48.076 303.804 48.652 303.804 49.316C303.804 49.98 303.66 50.56 303.372 51.056C303.092 51.544 302.708 51.924 302.22 52.196C301.74 52.468 301.184 52.604 300.552 52.604ZM297 54.848V46.112H298.428V47.624L298.38 49.328L298.5 51.032V54.848H297ZM300.384 51.32C300.744 51.32 301.064 51.24 301.344 51.08C301.632 50.92 301.86 50.688 302.028 50.384C302.196 50.08 302.28 49.724 302.28 49.316C302.28 48.9 302.196 48.544 302.028 48.248C301.86 47.944 301.632 47.712 301.344 47.552C301.064 47.392 300.744 47.312 300.384 47.312C300.024 47.312 299.7 47.392 299.412 47.552C299.124 47.712 298.896 47.944 298.728 48.248C298.56 48.544 298.476 48.9 298.476 49.316C298.476 49.724 298.56 50.08 298.728 50.384C298.896 50.688 299.124 50.92 299.412 51.08C299.7 51.24 300.024 51.32 300.384 51.32Z" fill="#666666"/>
<path d="M308.239 52.604C307.527 52.604 306.903 52.464 306.367 52.184C305.839 51.896 305.427 51.504 305.131 51.008C304.843 50.512 304.699 49.948 304.699 49.316C304.699 48.676 304.839 48.112 305.119 47.624C305.407 47.128 305.799 46.74 306.295 46.46C306.799 46.18 307.371 46.04 308.011 46.04C308.635 46.04 309.191 46.176 309.679 46.448C310.167 46.72 310.551 47.104 310.831 47.6C311.111 48.096 311.251 48.68 311.251 49.352C311.251 49.416 311.247 49.488 311.239 49.568C311.239 49.648 311.235 49.724 311.227 49.796H305.887V48.8H310.435L309.847 49.112C309.855 48.744 309.779 48.42 309.619 48.14C309.459 47.86 309.239 47.64 308.959 47.48C308.687 47.32 308.371 47.24 308.011 47.24C307.643 47.24 307.319 47.32 307.039 47.48C306.767 47.64 306.551 47.864 306.391 48.152C306.239 48.432 306.163 48.764 306.163 49.148V49.388C306.163 49.772 306.251 50.112 306.427 50.408C306.603 50.704 306.851 50.932 307.171 51.092C307.491 51.252 307.859 51.332 308.275 51.332C308.635 51.332 308.959 51.276 309.247 51.164C309.535 51.052 309.791 50.876 310.015 50.636L310.819 51.56C310.531 51.896 310.167 52.156 309.727 52.34C309.295 52.516 308.799 52.604 308.239 52.604Z" fill="#666666"/>
<path d="M311.64 52.52L314.46 48.848L314.436 49.652L311.748 46.112H313.416L315.3 48.632H314.664L316.56 46.112H318.18L315.468 49.652L315.48 48.848L318.288 52.52H316.596L314.616 49.844L315.24 49.928L313.296 52.52H311.64Z" fill="#666666"/>
<path d="M320.411 52.52V44.72L321.095 45.428H318.635V44.12H321.971V52.52H320.411Z" fill="#666666"/>
<path d="M327.142 52.64C326.478 52.64 325.878 52.472 325.342 52.136C324.814 51.8 324.398 51.312 324.094 50.672C323.79 50.024 323.638 49.24 323.638 48.32C323.638 47.4 323.79 46.62 324.094 45.98C324.398 45.332 324.814 44.84 325.342 44.504C325.878 44.168 326.478 44 327.142 44C327.814 44 328.414 44.168 328.942 44.504C329.47 44.84 329.886 45.332 330.19 45.98C330.502 46.62 330.658 47.4 330.658 48.32C330.658 49.24 330.502 50.024 330.19 50.672C329.886 51.312 329.47 51.8 328.942 52.136C328.414 52.472 327.814 52.64 327.142 52.64ZM327.142 51.284C327.534 51.284 327.874 51.18 328.162 50.972C328.45 50.756 328.674 50.428 328.834 49.988C329.002 49.548 329.086 48.992 329.086 48.32C329.086 47.64 329.002 47.084 328.834 46.652C328.674 46.212 328.45 45.888 328.162 45.68C327.874 45.464 327.534 45.356 327.142 45.356C326.766 45.356 326.43 45.464 326.134 45.68C325.846 45.888 325.618 46.212 325.45 46.652C325.29 47.084 325.21 47.64 325.21 48.32C325.21 48.992 325.29 49.548 325.45 49.988C325.618 50.428 325.846 50.756 326.134 50.972C326.43 51.18 326.766 51.284 327.142 51.284Z" fill="#666666"/>
<path d="M331.592 52.52V51.476L334.928 48.308C335.208 48.044 335.416 47.812 335.552 47.612C335.688 47.412 335.776 47.228 335.816 47.06C335.864 46.884 335.888 46.72 335.888 46.568C335.888 46.184 335.756 45.888 335.492 45.68C335.228 45.464 334.84 45.356 334.328 45.356C333.92 45.356 333.548 45.428 333.212 45.572C332.884 45.716 332.6 45.936 332.36 46.232L331.268 45.392C331.596 44.952 332.036 44.612 332.588 44.372C333.148 44.124 333.772 44 334.46 44C335.068 44 335.596 44.1 336.044 44.3C336.5 44.492 336.848 44.768 337.088 45.128C337.336 45.488 337.46 45.916 337.46 46.412C337.46 46.684 337.424 46.956 337.352 47.228C337.28 47.492 337.144 47.772 336.944 48.068C336.744 48.364 336.452 48.696 336.068 49.064L333.2 51.788L332.876 51.2H337.784V52.52H331.592Z" fill="#666666"/>
<path d="M302.966 72.604C302.446 72.604 301.97 72.484 301.538 72.244C301.114 72.004 300.774 71.644 300.518 71.164C300.27 70.676 300.146 70.06 300.146 69.316C300.146 68.564 300.266 67.948 300.506 67.468C300.754 66.988 301.09 66.632 301.514 66.4C301.938 66.16 302.422 66.04 302.966 66.04C303.598 66.04 304.154 66.176 304.634 66.448C305.122 66.72 305.506 67.1 305.786 67.588C306.074 68.076 306.218 68.652 306.218 69.316C306.218 69.98 306.074 70.56 305.786 71.056C305.506 71.544 305.122 71.924 304.634 72.196C304.154 72.468 303.598 72.604 302.966 72.604ZM299.414 74.848V66.112H300.842V67.624L300.794 69.328L300.914 71.032V74.848H299.414ZM302.798 71.32C303.158 71.32 303.478 71.24 303.758 71.08C304.046 70.92 304.274 70.688 304.442 70.384C304.61 70.08 304.694 69.724 304.694 69.316C304.694 68.9 304.61 68.544 304.442 68.248C304.274 67.944 304.046 67.712 303.758 67.552C303.478 67.392 303.158 67.312 302.798 67.312C302.438 67.312 302.114 67.392 301.826 67.552C301.538 67.712 301.31 67.944 301.142 68.248C300.974 68.544 300.89 68.9 300.89 69.316C300.89 69.724 300.974 70.08 301.142 70.384C301.31 70.688 301.538 70.92 301.826 71.08C302.114 71.24 302.438 71.32 302.798 71.32Z" fill="#666666"/>
<path d="M310.653 72.604C309.941 72.604 309.317 72.464 308.781 72.184C308.253 71.896 307.841 71.504 307.545 71.008C307.257 70.512 307.113 69.948 307.113 69.316C307.113 68.676 307.253 68.112 307.533 67.624C307.821 67.128 308.213 66.74 308.709 66.46C309.213 66.18 309.785 66.04 310.425 66.04C311.049 66.04 311.605 66.176 312.093 66.448C312.581 66.72 312.965 67.104 313.245 67.6C313.525 68.096 313.665 68.68 313.665 69.352C313.665 69.416 313.661 69.488 313.653 69.568C313.653 69.648 313.649 69.724 313.641 69.796H308.301V68.8H312.849L312.261 69.112C312.269 68.744 312.193 68.42 312.033 68.14C311.873 67.86 311.653 67.64 311.373 67.48C311.101 67.32 310.785 67.24 310.425 67.24C310.057 67.24 309.733 67.32 309.453 67.48C309.181 67.64 308.965 67.864 308.805 68.152C308.653 68.432 308.577 68.764 308.577 69.148V69.388C308.577 69.772 308.665 70.112 308.841 70.408C309.017 70.704 309.265 70.932 309.585 71.092C309.905 71.252 310.273 71.332 310.689 71.332C311.049 71.332 311.373 71.276 311.661 71.164C311.949 71.052 312.205 70.876 312.429 70.636L313.233 71.56C312.945 71.896 312.581 72.156 312.141 72.34C311.709 72.516 311.213 72.604 310.653 72.604Z" fill="#666666"/>
<path d="M314.054 72.52L316.874 68.848L316.85 69.652L314.162 66.112H315.83L317.714 68.632H317.078L318.974 66.112H320.594L317.882 69.652L317.894 68.848L320.702 72.52H319.01L317.03 69.844L317.654 69.928L315.71 72.52H314.054Z" fill="#666666"/>
<path d="M322.826 72.52V64.72L323.51 65.428H321.05V64.12H324.385V72.52H322.826Z" fill="#666666"/>
<path d="M329.556 72.64C328.892 72.64 328.292 72.472 327.756 72.136C327.228 71.8 326.812 71.312 326.508 70.672C326.204 70.024 326.052 69.24 326.052 68.32C326.052 67.4 326.204 66.62 326.508 65.98C326.812 65.332 327.228 64.84 327.756 64.504C328.292 64.168 328.892 64 329.556 64C330.228 64 330.828 64.168 331.356 64.504C331.884 64.84 332.3 65.332 332.604 65.98C332.916 66.62 333.072 67.4 333.072 68.32C333.072 69.24 332.916 70.024 332.604 70.672C332.3 71.312 331.884 71.8 331.356 72.136C330.828 72.472 330.228 72.64 329.556 72.64ZM329.556 71.284C329.948 71.284 330.288 71.18 330.576 70.972C330.864 70.756 331.088 70.428 331.248 69.988C331.416 69.548 331.5 68.992 331.5 68.32C331.5 67.64 331.416 67.084 331.248 66.652C331.088 66.212 330.864 65.888 330.576 65.68C330.288 65.464 329.948 65.356 329.556 65.356C329.18 65.356 328.844 65.464 328.548 65.68C328.26 65.888 328.032 66.212 327.864 66.652C327.704 67.084 327.624 67.64 327.624 68.32C327.624 68.992 327.704 69.548 327.864 69.988C328.032 70.428 328.26 70.756 328.548 70.972C328.844 71.18 329.18 71.284 329.556 71.284Z" fill="#666666"/>
<path d="M335.458 72.52V64.72L336.142 65.428H333.682V64.12H337.018V72.52H335.458Z" fill="#666666"/>
<path d="M303.411 92.604C302.891 92.604 302.415 92.484 301.983 92.244C301.559 92.004 301.219 91.644 300.963 91.164C300.715 90.676 300.591 90.06 300.591 89.316C300.591 88.564 300.711 87.948 300.951 87.468C301.199 86.988 301.535 86.632 301.959 86.4C302.383 86.16 302.867 86.04 303.411 86.04C304.043 86.04 304.599 86.176 305.079 86.448C305.567 86.72 305.951 87.1 306.231 87.588C306.519 88.076 306.663 88.652 306.663 89.316C306.663 89.98 306.519 90.56 306.231 91.056C305.951 91.544 305.567 91.924 305.079 92.196C304.599 92.468 304.043 92.604 303.411 92.604ZM299.859 94.848V86.112H301.287V87.624L301.239 89.328L301.359 91.032V94.848H299.859ZM303.243 91.32C303.603 91.32 303.923 91.24 304.203 91.08C304.491 90.92 304.719 90.688 304.887 90.384C305.055 90.08 305.139 89.724 305.139 89.316C305.139 88.9 305.055 88.544 304.887 88.248C304.719 87.944 304.491 87.712 304.203 87.552C303.923 87.392 303.603 87.312 303.243 87.312C302.883 87.312 302.559 87.392 302.271 87.552C301.983 87.712 301.755 87.944 301.587 88.248C301.419 88.544 301.335 88.9 301.335 89.316C301.335 89.724 301.419 90.08 301.587 90.384C301.755 90.688 301.983 90.92 302.271 91.08C302.559 91.24 302.883 91.32 303.243 91.32Z" fill="#666666"/>
<path d="M308.086 92.52V86.112H309.586V92.52H308.086ZM308.842 85.056C308.562 85.056 308.33 84.968 308.146 84.792C307.97 84.616 307.882 84.404 307.882 84.156C307.882 83.9 307.97 83.688 308.146 83.52C308.33 83.344 308.562 83.256 308.842 83.256C309.122 83.256 309.35 83.34 309.526 83.508C309.71 83.668 309.802 83.872 309.802 84.12C309.802 84.384 309.714 84.608 309.538 84.792C309.362 84.968 309.13 85.056 308.842 85.056Z" fill="#666666"/>
<path d="M315.191 86.04C315.703 86.04 316.159 86.14 316.559 86.34C316.967 86.54 317.287 86.848 317.519 87.264C317.751 87.672 317.867 88.2 317.867 88.848V92.52H316.367V89.04C316.367 88.472 316.231 88.048 315.959 87.768C315.695 87.488 315.323 87.348 314.843 87.348C314.491 87.348 314.179 87.42 313.907 87.564C313.635 87.708 313.423 87.924 313.271 88.212C313.127 88.492 313.055 88.848 313.055 89.28V92.52H311.555V86.112H312.983V87.84L312.731 87.312C312.955 86.904 313.279 86.592 313.703 86.376C314.135 86.152 314.631 86.04 315.191 86.04Z" fill="#666666"/>
<path d="M320.411 92.52V84.72L321.095 85.428H318.635V84.12H321.971V92.52H320.411Z" fill="#666666"/>
<path d="M327.142 92.64C326.478 92.64 325.878 92.472 325.342 92.136C324.814 91.8 324.398 91.312 324.094 90.672C323.79 90.024 323.638 89.24 323.638 88.32C323.638 87.4 323.79 86.62 324.094 85.98C324.398 85.332 324.814 84.84 325.342 84.504C325.878 84.168 326.478 84 327.142 84C327.814 84 328.414 84.168 328.942 84.504C329.47 84.84 329.886 85.332 330.19 85.98C330.502 86.62 330.658 87.4 330.658 88.32C330.658 89.24 330.502 90.024 330.19 90.672C329.886 91.312 329.47 91.8 328.942 92.136C328.414 92.472 327.814 92.64 327.142 92.64ZM327.142 91.284C327.534 91.284 327.874 91.18 328.162 90.972C328.45 90.756 328.674 90.428 328.834 89.988C329.002 89.548 329.086 88.992 329.086 88.32C329.086 87.64 329.002 87.084 328.834 86.652C328.674 86.212 328.45 85.888 328.162 85.68C327.874 85.464 327.534 85.356 327.142 85.356C326.766 85.356 326.43 85.464 326.134 85.68C325.846 85.888 325.618 86.212 325.45 86.652C325.29 87.084 325.21 87.64 325.21 88.32C325.21 88.992 325.29 89.548 325.45 89.988C325.618 90.428 325.846 90.756 326.134 90.972C326.43 91.18 326.766 91.284 327.142 91.284Z" fill="#666666"/>
<path d="M331.592 92.52V91.476L334.928 88.308C335.208 88.044 335.416 87.812 335.552 87.612C335.688 87.412 335.776 87.228 335.816 87.06C335.864 86.884 335.888 86.72 335.888 86.568C335.888 86.184 335.756 85.888 335.492 85.68C335.228 85.464 334.84 85.356 334.328 85.356C333.92 85.356 333.548 85.428 333.212 85.572C332.884 85.716 332.6 85.936 332.36 86.232L331.268 85.392C331.596 84.952 332.036 84.612 332.588 84.372C333.148 84.124 333.772 84 334.46 84C335.068 84 335.596 84.1 336.044 84.3C336.5 84.492 336.848 84.768 337.088 85.128C337.336 85.488 337.46 85.916 337.46 86.412C337.46 86.684 337.424 86.956 337.352 87.228C337.28 87.492 337.144 87.772 336.944 88.068C336.744 88.364 336.452 88.696 336.068 89.064L333.2 91.788L332.876 91.2H337.784V92.52H331.592Z" fill="#666666"/>
</svg>
